<?xml version="1.0" encoding="utf-8"?>
<!-- Generator: Adobe Illustrator 24.3.0, SVG Export Plug-In . SVG Version: 6.00 Build 0)  -->
<svg version="1.1" id="Capa_1" xmlns="http://www.w3.org/2000/svg" xmlns:xlink="http://www.w3.org/1999/xlink" x="0px" y="0px"
	 viewBox="0 0 147.26 234.35" style="enable-background:new 0 0 147.26 234.35;" xml:space="preserve">
<style type="text/css">
	.st0{fill:#E6322D;}
	.st1{fill:#FFE888;}
	.st2{fill:#22398C;}
	.st3{fill:#342015;}
</style>
<g>
	<path class="st0" d="M109.28,103.08v19.94c0,0.44-0.36,0.8-0.8,0.8H83.84v-14.54l24.42-6.97
		C108.77,102.16,109.28,102.54,109.28,103.08z"/>
	<polygon class="st1" points="83.84,109.27 83.84,123.82 58.41,123.82 58.41,116.56 	"/>
	<path class="st2" d="M58.41,116.56v7.26h-19.7c-0.93,0-1.12-1.32-0.22-1.58L58.41,116.56z"/>
	<g>
		<path class="st3" d="M39.3,158.65c-1.29-1.88-1.94-4.48-1.94-7.8v-11.3c0-3.5,0.63-6.16,1.9-7.98c1.26-1.82,3.5-2.73,6.71-2.73
			c2.87,0,4.93,0.78,6.18,2.33c1.25,1.55,1.88,3.85,1.88,6.87v2.53H49.8v-2.25c0-1.47-0.07-2.61-0.2-3.4
			c-0.13-0.79-0.47-1.42-1.01-1.9c-0.54-0.47-1.4-0.71-2.59-0.71c-1.21,0-2.11,0.26-2.71,0.77c-0.59,0.51-0.98,1.22-1.16,2.13
			c-0.19,0.91-0.28,2.13-0.28,3.65v12.68c0,1.63,0.13,2.91,0.4,3.83c0.26,0.92,0.69,1.58,1.28,1.98c0.59,0.4,1.41,0.59,2.47,0.59
			c1.13,0,1.97-0.25,2.53-0.75c0.55-0.5,0.9-1.18,1.05-2.05c0.14-0.87,0.22-2.05,0.22-3.55v-2.37h4.23v2.37
			c0,3.19-0.6,5.63-1.8,7.33c-1.2,1.7-3.29,2.55-6.26,2.55C42.81,161.47,40.59,160.53,39.3,158.65z"/>
		<path class="st3" d="M62.45,129.12h4.31l6.84,32h-4.23l-1.46-8.06h-6.52l-1.54,8.06h-4.19L62.45,129.12z M67.31,149.86
			l-2.69-14.42l-2.65,14.42H67.31z"/>
		<path class="st3" d="M77.32,158.98c-1.41-1.66-2.19-3.94-2.35-6.84l3.95-1.07c0.13,2.05,0.54,3.71,1.21,4.98
			c0.67,1.26,1.78,1.9,3.34,1.9c1.16,0,2.04-0.32,2.63-0.97c0.59-0.64,0.89-1.57,0.89-2.78c0-1.32-0.28-2.41-0.83-3.28
			c-0.55-0.87-1.44-1.83-2.65-2.88l-5.37-4.74c-1.08-0.95-1.86-1.97-2.35-3.06c-0.49-1.09-0.73-2.43-0.73-4.01
			c0-2.34,0.67-4.16,2.01-5.45c1.34-1.29,3.17-1.94,5.49-1.94c2.53,0,4.44,0.67,5.73,2.01c1.29,1.34,2.07,3.42,2.33,6.24l-3.79,1.03
			c-0.13-1.87-0.49-3.31-1.09-4.33c-0.59-1.01-1.65-1.52-3.18-1.52c-1.13,0-2,0.3-2.61,0.89c-0.61,0.59-0.91,1.47-0.91,2.63
			c0,0.95,0.16,1.74,0.47,2.39c0.32,0.64,0.86,1.3,1.62,1.95l5.41,4.74c1.4,1.24,2.51,2.58,3.34,4.03s1.24,3.09,1.24,4.94
			c0,2.34-0.71,4.2-2.13,5.57c-1.42,1.37-3.27,2.05-5.53,2.05C80.78,161.47,78.73,160.64,77.32,158.98z"/>
		<path class="st3" d="M98.75,129.12h4.31l6.84,32h-4.23l-1.46-8.06h-6.52l-1.54,8.06h-4.19L98.75,129.12z M103.61,149.86
			l-2.69-14.42l-2.65,14.42H103.61z"/>
		<path class="st3" d="M37.95,164.99h4.38l5.65,25.96l5.69-25.96h4.35l0.59,32h-3.6l-0.35-23.23l-5.41,23.23h-2.53l-5.37-23.23
			L41,196.99h-3.64L37.95,164.99z"/>
		<path class="st3" d="M62.05,164.99h4.38v32h-4.38V164.99z"/>
		<path class="st3" d="M73.43,168.3h-5.41v-3.32h15.13v3.32h-5.26v28.68h-4.46V168.3z"/>
		<path class="st3" d="M84.77,164.99h4.38v32h-4.38V164.99z"/>
		<path class="st3" d="M95.65,196c-1.25-0.9-2.11-2.15-2.59-3.75c-0.48-1.61-0.71-3.62-0.71-6.04v-21.21h4.27v21.41
			c0,2.42,0.28,4.27,0.85,5.53c0.57,1.26,1.71,1.9,3.42,1.9c1.71,0,2.85-0.63,3.42-1.9c0.57-1.26,0.85-3.11,0.85-5.53v-21.41h4.23
			v21.21c0,2.42-0.24,4.44-0.71,6.04c-0.47,1.61-1.33,2.86-2.57,3.75c-1.24,0.9-2.98,1.34-5.21,1.34
			C98.65,197.34,96.9,196.9,95.65,196z"/>
	</g>
	<g>
		<path class="st1" d="M107.23,65.64v10.89c0,0.27-0.18,0.5-0.44,0.57L40.22,94.22c-0.37,0.09-0.74-0.19-0.74-0.58V82.76
			c0-0.27,0.18-0.51,0.45-0.58l66.56-17.11C106.87,64.97,107.23,65.25,107.23,65.64z"/>
		<path class="st1" d="M107.23,86.25v8.89c0,0.26-0.17,0.49-0.43,0.57l-66.56,19.01c-0.38,0.11-0.76-0.17-0.76-0.57v-10.79
			c0-0.27,0.18-0.5,0.45-0.57l66.56-17.11C106.87,85.58,107.23,85.86,107.23,86.25z"/>
		<g>
			<path class="st3" d="M108.2,61.48c-4.08-2.76-8.5-5.11-13.36-6.98c-0.56-1.57-1.45-2.86-2.5-3.98c0.06-0.21,0.08-0.41,0.08-0.64
				c0-3.9-3.39-5.7-6.1-7.14c-1.52-0.82-2.97-1.6-3.86-2.59c-0.32-0.39-0.57-0.8-0.71-1.27l-0.54-1.87l-0.72,0.16l-1.19,0.27
				c-4.38,1.03-15.13,6.6-15.19,12.39l-0.9,0.03c-0.72,0.03-1.41,0.38-1.86,0.94L37.97,80.03c-0.35,0.44-0.54,0.98-0.54,1.55v32.79
				c0,1.65,1.57,2.84,3.16,2.39l66.89-19.11c1.07-0.31,1.8-1.28,1.8-2.39V63.55C109.28,62.72,108.88,61.94,108.2,61.48z
				 M65.22,52.22c2.83,2.59,7.91,4.89,13.04,4.89c-6.48-2.02-10.76-5.19-11.87-6.61c-0.14-0.21-0.23-0.41-0.23-0.62v-0.1
				c0.01-0.32,0.07-0.63,0.19-0.94c0.74-2.18,3.57-4.56,6.65-6.41c0.02-0.02,0.06-0.04,0.08-0.06c2.38-1.42,4.91-2.49,6.69-2.92
				c0.03,0.04,0.03,0.09,0.05,0.13c0.16,0.55,0.43,1.04,0.76,1.47c0.55,0.76,1.29,1.4,2.13,1.96c0.82,0.57,1.77,1.06,2.67,1.53
				c0.02,0,0.02,0.02,0.02,0.02c2.03,1.09,3.98,2.14,4.68,3.86c0.19,0.44,0.29,0.93,0.29,1.46c0,0.04,0,0.08-0.02,0.13
				c-0.04,0.3-0.25,0.59-0.6,0.84c-1.15,0.9-2.7,0.88-5.54,0.56c-0.01,0-0.01,0-0.02,0c-1.09-0.12-2.36-0.28-3.88-0.46
				c2.87,0.77,7,3.27,9.93,1.98c0.34-0.14,0.67-0.34,0.97-0.6c0.31,0.37,0.6,0.76,0.86,1.18c0.83,1.33,1.36,2.9,1.36,4.89
				c0,3.14-6.8,5.69-15.17,5.69c-8.38,0-15.16-2.55-15.16-5.69C63.1,56.45,63.9,54.32,65.22,52.22z M107.23,95.14
				c0,0.26-0.17,0.49-0.43,0.57l-66.56,19.01c-0.38,0.11-0.76-0.17-0.76-0.57v-10.79c0-0.27,0.18-0.5,0.45-0.57l66.56-17.11
				c0.38-0.1,0.74,0.18,0.74,0.57V95.14z M107.23,76.53c0,0.27-0.18,0.5-0.44,0.57L40.22,94.22c-0.37,0.09-0.74-0.19-0.74-0.58
				V82.76c0-0.27,0.18-0.51,0.45-0.58l66.56-17.11c0.38-0.1,0.74,0.18,0.74,0.57V76.53z"/>
		</g>
	</g>
</g>
</svg>
