<?xml version="1.0" encoding="utf-8"?>
<!-- Generator: Adobe Illustrator 24.3.0, SVG Export Plug-In . SVG Version: 6.00 Build 0)  -->
<svg version="1.1" id="Capa_1" xmlns="http://www.w3.org/2000/svg" xmlns:xlink="http://www.w3.org/1999/xlink" x="0px" y="0px"
	 viewBox="0 0 239.52 160.69" style="enable-background:new 0 0 239.52 160.69;" xml:space="preserve">
<style type="text/css">
	.st0{fill:#E6322D;}
	.st1{fill:#FFE888;}
	.st2{fill:#22398C;}
	.st3{fill:#342015;}
</style>
<g>
	<path class="st0" d="M109.04,102.84v19.94c0,0.44-0.36,0.8-0.8,0.8H83.59v-14.54l24.42-6.97
		C108.53,101.92,109.04,102.3,109.04,102.84z"/>
	<polygon class="st1" points="83.59,109.03 83.59,123.58 58.17,123.58 58.17,116.31 	"/>
	<path class="st2" d="M58.17,116.31v7.26h-19.7c-0.93,0-1.12-1.32-0.22-1.58L58.17,116.31z"/>
	<g>
		<path class="st3" d="M119.91,78.75c-1.51-2.2-2.26-5.24-2.26-9.11V56.45c0-4.09,0.74-7.2,2.21-9.31c1.48-2.12,4.09-3.18,7.84-3.18
			c3.35,0,5.76,0.91,7.22,2.72c1.46,1.82,2.19,4.49,2.19,8.03v2.95h-4.94v-2.63c0-1.72-0.08-3.04-0.23-3.97
			c-0.15-0.92-0.55-1.66-1.18-2.21c-0.63-0.55-1.64-0.83-3.02-0.83c-1.42,0-2.47,0.3-3.16,0.9c-0.69,0.6-1.14,1.43-1.36,2.49
			c-0.22,1.06-0.32,2.48-0.32,4.27v14.8c0,1.91,0.15,3.4,0.46,4.47c0.31,1.08,0.81,1.85,1.5,2.31c0.69,0.46,1.65,0.69,2.88,0.69
			c1.32,0,2.3-0.29,2.95-0.88c0.65-0.58,1.05-1.38,1.22-2.4c0.17-1.02,0.25-2.4,0.25-4.15v-2.77h4.94v2.77c0,3.72-0.7,6.57-2.1,8.55
			c-1.4,1.98-3.84,2.97-7.31,2.97C124.01,82.05,121.42,80.95,119.91,78.75z"/>
		<path class="st3" d="M146.94,44.27h5.03l7.98,37.36h-4.94l-1.71-9.41h-7.61l-1.8,9.41H139L146.94,44.27z M152.61,68.49
			l-3.13-16.84l-3.09,16.84H152.61z"/>
		<path class="st3" d="M164.3,79.14c-1.64-1.94-2.56-4.6-2.74-7.98l4.61-1.25c0.15,2.4,0.62,4.34,1.41,5.81
			c0.78,1.48,2.08,2.21,3.9,2.21c1.35,0,2.38-0.38,3.07-1.13c0.69-0.75,1.04-1.84,1.04-3.25c0-1.54-0.32-2.81-0.97-3.83
			c-0.65-1.02-1.68-2.14-3.09-3.37l-6.27-5.54c-1.26-1.11-2.18-2.3-2.74-3.57c-0.57-1.28-0.85-2.84-0.85-4.68
			c0-2.74,0.78-4.86,2.35-6.36c1.57-1.51,3.7-2.26,6.41-2.26c2.95,0,5.18,0.78,6.69,2.35c1.51,1.57,2.41,4,2.72,7.29l-4.43,1.2
			c-0.15-2.18-0.58-3.87-1.27-5.05c-0.69-1.18-1.93-1.78-3.71-1.78c-1.32,0-2.34,0.35-3.04,1.04c-0.71,0.69-1.06,1.71-1.06,3.07
			c0,1.11,0.18,2.04,0.55,2.79c0.37,0.75,1,1.51,1.89,2.28l6.32,5.54c1.63,1.44,2.93,3.01,3.9,4.7c0.97,1.69,1.45,3.61,1.45,5.77
			c0,2.74-0.83,4.9-2.49,6.5c-1.66,1.6-3.81,2.4-6.46,2.4C168.34,82.05,165.95,81.08,164.3,79.14z"/>
		<path class="st3" d="M189.33,44.27h5.03l7.98,37.36h-4.94l-1.71-9.41h-7.61l-1.8,9.41h-4.89L189.33,44.27z M195,68.49l-3.13-16.84
			l-3.09,16.84H195z"/>
		<path class="st3" d="M118.34,86.15h5.12l6.6,30.3l6.64-30.3h5.07l0.69,37.36h-4.2l-0.41-27.12l-6.32,27.12h-2.95l-6.27-27.12
			l-0.41,27.12h-4.24L118.34,86.15z"/>
		<path class="st3" d="M146.48,86.15h5.12v37.36h-5.12V86.15z"/>
		<path class="st3" d="M159.76,90.03h-6.32v-3.87h17.67v3.87h-6.14v33.49h-5.21V90.03z"/>
		<path class="st3" d="M173,86.15h5.12v37.36H173V86.15z"/>
		<path class="st3" d="M185.7,122.36c-1.46-1.05-2.47-2.51-3.02-4.38c-0.55-1.87-0.83-4.23-0.83-7.06V86.15h4.98v25
			c0,2.83,0.33,4.98,0.99,6.46c0.66,1.48,1.99,2.21,3.99,2.21c2,0,3.33-0.74,3.99-2.21c0.66-1.48,0.99-3.63,0.99-6.46v-25h4.93
			v24.77c0,2.83-0.28,5.18-0.83,7.06c-0.55,1.88-1.55,3.34-3,4.38c-1.45,1.05-3.47,1.57-6.09,1.57
			C189.2,123.93,187.16,123.4,185.7,122.36z"/>
	</g>
	<g>
		<path class="st1" d="M106.99,65.4v10.89c0,0.27-0.19,0.5-0.45,0.57L39.98,93.97c-0.38,0.1-0.74-0.18-0.74-0.57V82.52
			c0-0.27,0.18-0.51,0.44-0.58l66.57-17.12C106.62,64.73,106.99,65.01,106.99,65.4z"/>
		<path class="st1" d="M106.99,86.01v8.88c0,0.27-0.18,0.5-0.43,0.57l-66.57,19.02c-0.38,0.11-0.75-0.17-0.75-0.57v-10.79
			c0-0.27,0.18-0.51,0.44-0.57l66.57-17.12C106.62,85.34,106.99,85.62,106.99,86.01z"/>
		<g>
			<path class="st3" d="M107.96,61.24c-4.08-2.76-8.5-5.12-13.36-6.98c-0.57-1.57-1.46-2.86-2.5-3.98c0.06-0.21,0.08-0.41,0.08-0.64
				c0-3.9-3.39-5.71-6.1-7.14c-1.52-0.83-2.98-1.61-3.86-2.59c-0.33-0.39-0.57-0.8-0.72-1.27l-0.53-1.87l-0.72,0.16l-1.19,0.27
				c-4.37,1.03-15.12,6.59-15.19,12.38c-0.3,0.01-0.6,0.02-0.9,0.03c-0.72,0.03-1.41,0.38-1.86,0.95L37.73,79.78
				c-0.36,0.44-0.55,0.99-0.55,1.55v32.8c0,1.65,1.58,2.84,3.17,2.39l66.89-19.12c1.07-0.3,1.8-1.27,1.8-2.38V63.3
				C109.04,62.48,108.64,61.7,107.96,61.24z M66.15,50.26c-0.15-0.21-0.23-0.41-0.23-0.62v-0.11c0.01-0.31,0.07-0.63,0.18-0.94
				c0.74-2.17,3.58-4.55,6.66-6.4c0.02-0.02,0.06-0.04,0.08-0.06c2.38-1.42,4.91-2.49,6.69-2.92c0.02,0.04,0.02,0.08,0.04,0.12
				c0.17,0.56,0.43,1.05,0.76,1.48c0.56,0.76,1.3,1.4,2.14,1.95c0.82,0.58,1.76,1.07,2.67,1.54c0.02,0,0.02,0.02,0.02,0.02
				c2.03,1.09,3.98,2.14,4.68,3.86c0.18,0.43,0.29,0.93,0.29,1.46c0,0.04,0,0.08-0.03,0.12c-0.04,0.31-0.24,0.6-0.59,0.84
				c-1.14,0.9-2.67,0.89-5.45,0.58c-1.11-0.12-2.42-0.29-3.99-0.47c2.88,0.77,7.02,3.28,9.95,1.98c0.33-0.15,0.65-0.35,0.95-0.61
				c0.31,0.37,0.6,0.76,0.86,1.18c0.83,1.33,1.35,2.91,1.35,4.9c0,3.14-6.79,5.69-15.17,5.69c-8.37,0-15.15-2.55-15.15-5.69
				c0-1.95,0.8-4.09,2.12-6.18c2.83,2.59,7.9,4.89,13.03,4.89C71.54,54.85,67.25,51.67,66.15,50.26z M106.99,94.89
				c0,0.27-0.18,0.5-0.43,0.57l-66.57,19.02c-0.38,0.11-0.75-0.17-0.75-0.57v-10.79c0-0.27,0.18-0.51,0.44-0.57l66.57-17.12
				c0.37-0.09,0.74,0.19,0.74,0.58V94.89z M106.99,76.29c0,0.27-0.19,0.5-0.45,0.57L39.98,93.97c-0.38,0.1-0.74-0.18-0.74-0.57
				V82.52c0-0.27,0.18-0.51,0.44-0.58l66.57-17.12c0.37-0.09,0.74,0.19,0.74,0.58V76.29z"/>
		</g>
	</g>
</g>
</svg>
